# xmcd CD database file
#
# Track frame offsets:
#	150
#	33885
#	74852
#	105442
#	136897
#	180612
#	210810
#
# Disc length: 3243 seconds
#
# Revision: 0
# Processed by: cddbd v1.4PL0 Copyright (c) Steve Scherf et al.
# Submitted via: CDex 1.50
#
DISCID=590ca907
DTITLE=Klaus König Orchestra - Time Fragments
DYEAR=1994
DGENRE=Jazz
TTITLE0=Waltzin' Over T'Yours
TTITLE1=Once Upon A Time
TTITLE2=Call That Going, Call That On
TTITLE3=Mean Wile
TTITLE4=Does Time Go By?
TTITLE5=Later That Night That Knight Laid Her
TTITLE6=Fine Nelly In Fin Alley
EXTD=YEAR: 1994
EXTT0=
EXTT1=
EXTT2=
EXTT3=
EXTT4=
EXTT5=
EXTT6=
PLAYORDER=
